<?xml version="1.0" standalone="no"?>
<!DOCTYPE svg PUBLIC "-//W3C//DTD SVG 20010904//EN"
 "http://www.w3.org/TR/2001/REC-SVG-20010904/DTD/svg10.dtd">
<svg version="1.0" xmlns="http://www.w3.org/2000/svg"
 width="500.000000pt" height="209.000000pt" viewBox="0 0 500.000000 209.000000"
 preserveAspectRatio="xMidYMid meet">

<g transform="translate(0.000000,209.000000) scale(0.100000,-0.100000)"
fill="#e72a2c" stroke="none">
<path d="M393 2063 l-43 -15 0 -54 0 -54 55 0 55 0 0 70 c0 78 0 77 -67 53z"/>
<path d="M327 1886 c-46 -17 -98 -56 -129 -97 -12 -17 -42 -51 -66 -76 -72
-76 -83 -73 273 -73 270 0 315 2 315 15 0 14 -37 55 -50 55 -4 0 -24 25 -45
56 -76 111 -192 157 -298 120z"/>
<path d="M50 1426 c0 -41 16 -80 44 -107 l32 -30 -17 -187 c-10 -103 -20 -210
-23 -238 -7 -65 0 -68 106 -54 157 22 334 98 417 179 69 68 83 105 80 212 -3
85 -2 90 25 118 20 21 30 43 33 75 l6 46 -352 0 c-291 0 -351 -2 -351 -14z"/>
<path d="M1003 1322 l-63 -15 0 -459 0 -458 80 0 80 0 0 210 c0 116 3 210 8
210 4 0 66 -93 138 -207 l130 -208 96 -3 96 -3 -137 208 c-76 114 -141 213
-145 220 -4 8 7 19 31 32 46 23 106 80 138 131 34 54 65 151 65 205 l0 45 -74
0 -74 0 -7 -49 c-10 -75 -55 -161 -109 -208 -50 -44 -131 -87 -146 -78 -6 4
-10 98 -10 226 0 249 10 228 -97 201z"/>
<path fill="#1078af" d="M4540 1211 l-65 -17 -3 -402 -2 -402 70 0 70 0 0 420 c0 231 -1 420
-2 419 -2 0 -32 -9 -68 -18z"/>
<path fill="#1078af" d="M4815 948 c-13 -60 -43 -104 -114 -170 l-69 -64 93 -160 93 -159 86
-3 c47 -1 86 -1 86 1 0 3 -40 65 -88 138 -128 194 -123 171 -58 230 60 55 106
135 106 186 l0 33 -64 0 -64 0 -7 -32z"/>
<path d="M1720 947 c-51 -16 -114 -85 -134 -145 -20 -61 -23 -194 -6 -249 42
-126 147 -193 282 -179 55 5 122 31 161 60 18 14 17 16 -8 54 l-26 40 -42 -23
c-23 -13 -58 -26 -78 -30 -74 -14 -149 48 -149 123 l0 32 166 0 167 0 -7 68
c-12 112 -26 151 -70 197 -59 62 -161 82 -256 52z m135 -93 c22 -9 45 -57 45
-94 l0 -30 -90 0 c-84 0 -90 1 -90 20 0 32 26 87 47 99 20 12 63 14 88 5z"/>
<path d="M2292 947 c-54 -20 -99 -63 -129 -124 -25 -51 -28 -69 -28 -153 0
-84 3 -102 28 -152 35 -71 85 -114 156 -135 69 -20 144 -13 214 21 82 39 81
37 52 83 l-27 41 -41 -23 c-23 -13 -57 -26 -74 -30 -75 -15 -153 43 -153 116
l0 39 166 0 167 0 -6 75 c-12 132 -67 220 -154 244 -49 14 -129 13 -171 -2z
m139 -100 c24 -18 39 -52 39 -86 l0 -31 -90 0 c-90 0 -90 0 -90 25 0 32 24 81
47 94 24 14 75 13 94 -2z"/>
<path d="M2810 953 c-14 -2 -35 -6 -47 -8 l-23 -5 0 -455 c0 -250 3 -455 6
-455 3 0 34 7 69 16 l65 16 0 170 c0 158 1 170 18 163 156 -60 293 24 322 197
20 117 -1 230 -53 294 -61 73 -164 94 -250 50 l-47 -23 0 23 c0 25 -5 26 -60
17z m225 -127 c30 -31 38 -75 33 -187 -3 -70 -9 -95 -25 -116 -29 -40 -72 -50
-120 -27 l-38 19 -3 147 -3 147 38 20 c51 27 89 26 118 -3z"/>
<path fill="#1078af" d="M3466 945 c-52 -18 -100 -67 -127 -129 -34 -75 -34 -219 0 -293 47
-104 152 -163 269 -149 55 7 120 31 156 58 18 14 18 16 -5 55 l-23 41 -41 -23
c-112 -66 -218 -26 -227 87 l-3 33 164 3 164 3 -6 82 c-9 117 -43 181 -116
219 -61 32 -138 37 -205 13z m153 -109 c13 -13 25 -42 28 -65 l6 -41 -92 0
-91 0 0 34 c0 52 41 96 89 96 27 0 44 -7 60 -24z"/>
<path fill="#1078af" d="M4025 941 c-56 -25 -111 -90 -129 -152 -20 -67 -20 -171 0 -238 34
-116 155 -192 283 -177 51 6 155 48 167 68 7 10 -34 78 -47 78 -4 0 -23 -9
-41 -20 -46 -28 -107 -35 -150 -17 -44 18 -68 53 -75 107 l-6 40 167 0 166 0
0 58 c0 120 -51 215 -135 253 -53 24 -147 24 -200 0z m167 -111 c10 -14 21
-42 25 -63 l6 -37 -97 0 c-53 0 -96 4 -96 9 0 32 16 75 36 96 33 35 98 32 126
-5z"/>
<path d="M685 817 c-40 -53 -122 -109 -217 -147 -82 -32 -276 -70 -359 -70
-32 0 -49 -4 -49 -12 0 -7 -11 -128 -25 -268 -33 -333 -34 -314 18 -244 128
173 322 270 606 305 92 11 101 14 101 33 0 32 -39 438 -42 441 -2 1 -16 -16
-33 -38z"/>
</g>
</svg>
